<mxfile host="app.diagrams.net" agent="Mozilla/5.0 (Windows NT 10.0; Win64; x64) AppleWebKit/537.36 (KHTML, like Gecko) Chrome/137.0.0.0 Safari/537.36" version="27.1.6">
  <diagram name="Page-1" id="ZfOrgXhFmn3kmoqXx3Qg">
    <mxGraphModel dx="1426" dy="743" grid="1" gridSize="10" guides="1" tooltips="1" connect="1" arrows="1" fold="1" page="1" pageScale="1" pageWidth="827" pageHeight="1169" math="0" shadow="0">
      <root>
        <mxCell id="0" />
        <mxCell id="1" parent="0" />
        <mxCell id="RejPeJDenLXVQN9rK35g-1" value="Auth" style="rounded=0;whiteSpace=wrap;html=1;" vertex="1" parent="1">
          <mxGeometry x="120" y="120" width="90" height="40" as="geometry" />
        </mxCell>
        <mxCell id="RejPeJDenLXVQN9rK35g-2" value="User" style="rounded=0;whiteSpace=wrap;html=1;" vertex="1" parent="1">
          <mxGeometry x="70" y="400" width="90" height="40" as="geometry" />
        </mxCell>
        <mxCell id="RejPeJDenLXVQN9rK35g-3" value="/Login" style="rounded=0;whiteSpace=wrap;html=1;" vertex="1" parent="1">
          <mxGeometry x="480" y="40" width="90" height="40" as="geometry" />
        </mxCell>
        <mxCell id="RejPeJDenLXVQN9rK35g-4" value="/Signup" style="rounded=0;whiteSpace=wrap;html=1;" vertex="1" parent="1">
          <mxGeometry x="480" y="120" width="90" height="40" as="geometry" />
        </mxCell>
        <mxCell id="RejPeJDenLXVQN9rK35g-5" value="/Profile" style="rounded=0;whiteSpace=wrap;html=1;" vertex="1" parent="1">
          <mxGeometry x="430" y="200" width="90" height="40" as="geometry" />
        </mxCell>
        <mxCell id="RejPeJDenLXVQN9rK35g-6" value="/Books" style="rounded=0;whiteSpace=wrap;html=1;" vertex="1" parent="1">
          <mxGeometry x="430" y="320" width="90" height="40" as="geometry" />
        </mxCell>
        <mxCell id="RejPeJDenLXVQN9rK35g-7" value="/Offers" style="rounded=0;whiteSpace=wrap;html=1;" vertex="1" parent="1">
          <mxGeometry x="430" y="480" width="90" height="40" as="geometry" />
        </mxCell>
        <mxCell id="RejPeJDenLXVQN9rK35g-8" value="/Deals" style="rounded=0;whiteSpace=wrap;html=1;" vertex="1" parent="1">
          <mxGeometry x="430" y="605" width="90" height="40" as="geometry" />
        </mxCell>
        <mxCell id="RejPeJDenLXVQN9rK35g-10" value="/" style="rounded=0;whiteSpace=wrap;html=1;" vertex="1" parent="1">
          <mxGeometry x="590" y="200" width="90" height="40" as="geometry" />
        </mxCell>
        <mxCell id="RejPeJDenLXVQN9rK35g-12" value="/" style="rounded=0;whiteSpace=wrap;html=1;" vertex="1" parent="1">
          <mxGeometry x="590" y="280" width="90" height="40" as="geometry" />
        </mxCell>
        <mxCell id="RejPeJDenLXVQN9rK35g-13" value="/slug" style="rounded=0;whiteSpace=wrap;html=1;" vertex="1" parent="1">
          <mxGeometry x="590" y="360" width="90" height="40" as="geometry" />
        </mxCell>
        <mxCell id="RejPeJDenLXVQN9rK35g-14" value="/" style="rounded=0;whiteSpace=wrap;html=1;" vertex="1" parent="1">
          <mxGeometry x="590" y="440" width="90" height="40" as="geometry" />
        </mxCell>
        <mxCell id="RejPeJDenLXVQN9rK35g-15" value="/slug" style="rounded=0;whiteSpace=wrap;html=1;" vertex="1" parent="1">
          <mxGeometry x="590" y="520" width="90" height="40" as="geometry" />
        </mxCell>
        <mxCell id="RejPeJDenLXVQN9rK35g-16" value="/" style="rounded=0;whiteSpace=wrap;html=1;" vertex="1" parent="1">
          <mxGeometry x="590" y="600" width="90" height="40" as="geometry" />
        </mxCell>
        <mxCell id="RejPeJDenLXVQN9rK35g-17" value="/slug" style="rounded=0;whiteSpace=wrap;html=1;" vertex="1" parent="1">
          <mxGeometry x="590" y="680" width="90" height="40" as="geometry" />
        </mxCell>
        <mxCell id="RejPeJDenLXVQN9rK35g-18" value="" style="endArrow=none;html=1;rounded=0;entryX=0;entryY=0.5;entryDx=0;entryDy=0;" edge="1" parent="1">
          <mxGeometry width="50" height="50" relative="1" as="geometry">
            <mxPoint x="230" y="220" as="sourcePoint" />
            <mxPoint x="430" y="220" as="targetPoint" />
          </mxGeometry>
        </mxCell>
        <mxCell id="RejPeJDenLXVQN9rK35g-19" value="" style="endArrow=none;html=1;rounded=0;entryX=0;entryY=0.5;entryDx=0;entryDy=0;" edge="1" parent="1" target="RejPeJDenLXVQN9rK35g-6">
          <mxGeometry width="50" height="50" relative="1" as="geometry">
            <mxPoint x="230" y="340" as="sourcePoint" />
            <mxPoint x="363.5" y="330" as="targetPoint" />
          </mxGeometry>
        </mxCell>
        <mxCell id="RejPeJDenLXVQN9rK35g-20" value="" style="endArrow=none;html=1;rounded=0;entryX=0;entryY=0.5;entryDx=0;entryDy=0;" edge="1" parent="1" target="RejPeJDenLXVQN9rK35g-7">
          <mxGeometry width="50" height="50" relative="1" as="geometry">
            <mxPoint x="230" y="500" as="sourcePoint" />
            <mxPoint x="300" y="475" as="targetPoint" />
          </mxGeometry>
        </mxCell>
        <mxCell id="RejPeJDenLXVQN9rK35g-21" value="" style="endArrow=none;html=1;rounded=0;entryX=0;entryY=0.5;entryDx=0;entryDy=0;" edge="1" parent="1">
          <mxGeometry width="50" height="50" relative="1" as="geometry">
            <mxPoint x="230" y="627" as="sourcePoint" />
            <mxPoint x="430" y="627" as="targetPoint" />
          </mxGeometry>
        </mxCell>
        <mxCell id="RejPeJDenLXVQN9rK35g-22" value="" style="endArrow=none;html=1;rounded=0;" edge="1" parent="1">
          <mxGeometry width="50" height="50" relative="1" as="geometry">
            <mxPoint x="230" y="221" as="sourcePoint" />
            <mxPoint x="230" y="628" as="targetPoint" />
          </mxGeometry>
        </mxCell>
        <mxCell id="RejPeJDenLXVQN9rK35g-23" value="" style="endArrow=none;html=1;rounded=0;entryX=0;entryY=0.5;entryDx=0;entryDy=0;" edge="1" parent="1" target="RejPeJDenLXVQN9rK35g-10">
          <mxGeometry width="50" height="50" relative="1" as="geometry">
            <mxPoint x="520" y="219.5" as="sourcePoint" />
            <mxPoint x="580" y="219.5" as="targetPoint" />
          </mxGeometry>
        </mxCell>
        <mxCell id="RejPeJDenLXVQN9rK35g-24" value="" style="endArrow=none;html=1;rounded=0;exitX=1;exitY=0.5;exitDx=0;exitDy=0;entryX=0;entryY=0.5;entryDx=0;entryDy=0;" edge="1" parent="1" source="RejPeJDenLXVQN9rK35g-6" target="RejPeJDenLXVQN9rK35g-12">
          <mxGeometry width="50" height="50" relative="1" as="geometry">
            <mxPoint x="530" y="340" as="sourcePoint" />
            <mxPoint x="580" y="290" as="targetPoint" />
          </mxGeometry>
        </mxCell>
        <mxCell id="RejPeJDenLXVQN9rK35g-25" value="" style="endArrow=none;html=1;rounded=0;entryX=0;entryY=0.5;entryDx=0;entryDy=0;" edge="1" parent="1" target="RejPeJDenLXVQN9rK35g-13">
          <mxGeometry width="50" height="50" relative="1" as="geometry">
            <mxPoint x="520" y="340" as="sourcePoint" />
            <mxPoint x="590" y="360" as="targetPoint" />
          </mxGeometry>
        </mxCell>
        <mxCell id="RejPeJDenLXVQN9rK35g-26" value="" style="endArrow=none;html=1;rounded=0;exitX=1;exitY=0.5;exitDx=0;exitDy=0;entryX=0;entryY=0.5;entryDx=0;entryDy=0;" edge="1" parent="1" source="RejPeJDenLXVQN9rK35g-7" target="RejPeJDenLXVQN9rK35g-14">
          <mxGeometry width="50" height="50" relative="1" as="geometry">
            <mxPoint x="510" y="480" as="sourcePoint" />
            <mxPoint x="580" y="440" as="targetPoint" />
          </mxGeometry>
        </mxCell>
        <mxCell id="RejPeJDenLXVQN9rK35g-27" value="" style="endArrow=none;html=1;rounded=0;exitX=1;exitY=0.5;exitDx=0;exitDy=0;entryX=0;entryY=0.5;entryDx=0;entryDy=0;" edge="1" parent="1" source="RejPeJDenLXVQN9rK35g-7" target="RejPeJDenLXVQN9rK35g-15">
          <mxGeometry width="50" height="50" relative="1" as="geometry">
            <mxPoint x="520" y="560" as="sourcePoint" />
            <mxPoint x="590" y="520" as="targetPoint" />
          </mxGeometry>
        </mxCell>
        <mxCell id="RejPeJDenLXVQN9rK35g-28" value="" style="endArrow=none;html=1;rounded=0;exitX=1;exitY=0.5;exitDx=0;exitDy=0;entryX=0;entryY=0.5;entryDx=0;entryDy=0;" edge="1" parent="1" source="RejPeJDenLXVQN9rK35g-8" target="RejPeJDenLXVQN9rK35g-16">
          <mxGeometry width="50" height="50" relative="1" as="geometry">
            <mxPoint x="530" y="645" as="sourcePoint" />
            <mxPoint x="600" y="605" as="targetPoint" />
          </mxGeometry>
        </mxCell>
        <mxCell id="RejPeJDenLXVQN9rK35g-29" value="" style="endArrow=none;html=1;rounded=0;exitX=1;exitY=0.5;exitDx=0;exitDy=0;entryX=0;entryY=0.5;entryDx=0;entryDy=0;" edge="1" parent="1" source="RejPeJDenLXVQN9rK35g-8" target="RejPeJDenLXVQN9rK35g-17">
          <mxGeometry width="50" height="50" relative="1" as="geometry">
            <mxPoint x="490" y="730" as="sourcePoint" />
            <mxPoint x="560" y="690" as="targetPoint" />
          </mxGeometry>
        </mxCell>
        <mxCell id="RejPeJDenLXVQN9rK35g-30" value="" style="endArrow=none;html=1;rounded=0;entryX=0;entryY=0.5;entryDx=0;entryDy=0;exitX=1;exitY=0.5;exitDx=0;exitDy=0;" edge="1" parent="1" source="RejPeJDenLXVQN9rK35g-1" target="RejPeJDenLXVQN9rK35g-3">
          <mxGeometry width="50" height="50" relative="1" as="geometry">
            <mxPoint x="230" y="140" as="sourcePoint" />
            <mxPoint x="280" y="90" as="targetPoint" />
          </mxGeometry>
        </mxCell>
        <mxCell id="RejPeJDenLXVQN9rK35g-31" value="" style="endArrow=none;html=1;rounded=0;entryX=0;entryY=0.5;entryDx=0;entryDy=0;exitX=1;exitY=0.5;exitDx=0;exitDy=0;" edge="1" parent="1" source="RejPeJDenLXVQN9rK35g-1" target="RejPeJDenLXVQN9rK35g-4">
          <mxGeometry width="50" height="50" relative="1" as="geometry">
            <mxPoint x="170" y="230" as="sourcePoint" />
            <mxPoint x="440" y="150" as="targetPoint" />
          </mxGeometry>
        </mxCell>
        <mxCell id="RejPeJDenLXVQN9rK35g-33" value="" style="endArrow=none;html=1;rounded=0;exitX=1;exitY=0.5;exitDx=0;exitDy=0;" edge="1" parent="1" source="RejPeJDenLXVQN9rK35g-2">
          <mxGeometry width="50" height="50" relative="1" as="geometry">
            <mxPoint x="270" y="420" as="sourcePoint" />
            <mxPoint x="230" y="420" as="targetPoint" />
          </mxGeometry>
        </mxCell>
        <mxCell id="RejPeJDenLXVQN9rK35g-34" value="Auth" style="rounded=0;whiteSpace=wrap;html=1;" vertex="1" parent="1">
          <mxGeometry x="320" y="190" width="50" height="30" as="geometry" />
        </mxCell>
        <mxCell id="RejPeJDenLXVQN9rK35g-36" value="Auth" style="rounded=0;whiteSpace=wrap;html=1;" vertex="1" parent="1">
          <mxGeometry x="320" y="310" width="50" height="30" as="geometry" />
        </mxCell>
        <mxCell id="RejPeJDenLXVQN9rK35g-37" value="Auth" style="rounded=0;whiteSpace=wrap;html=1;" vertex="1" parent="1">
          <mxGeometry x="320" y="470" width="50" height="30" as="geometry" />
        </mxCell>
        <mxCell id="RejPeJDenLXVQN9rK35g-38" value="Auth" style="rounded=0;whiteSpace=wrap;html=1;" vertex="1" parent="1">
          <mxGeometry x="320" y="597" width="50" height="30" as="geometry" />
        </mxCell>
      </root>
    </mxGraphModel>
  </diagram>
</mxfile>
